<svg xmlns="http://www.w3.org/2000/svg" width="300" height="300" viewBox="0 0 300 300" version="1.1">
	<path d="M 149.848 79.302 C 140.464 82.166, 132.541 86.853, 125.541 93.680 C 119.978 99.106, 114.162 107.889, 111.920 114.250 L 110.598 118 96.254 118 C 82.357 118, 81.832 118.077, 79.455 120.455 L 77 122.909 77 170.500 L 77 218.091 79.455 220.545 L 81.909 223 110.399 223 L 138.888 223 141.694 220.589 L 144.500 218.178 144.820 203.208 L 145.140 188.238 149.820 189.773 C 156.901 192.095, 173.805 191.820, 182.019 189.248 C 199.651 183.729, 213.726 170.104, 220.167 152.320 C 223.071 144.305, 223.304 126.021, 220.606 118 C 216.059 104.484, 206.238 91.740, 195.537 85.469 C 181.700 77.360, 164.024 74.974, 149.848 79.302 M 157 82.625 C 137.001 86.501, 121.101 100.729, 115.399 119.851 C 113.080 127.628, 113.112 141.855, 115.465 149 C 118.624 158.591, 122.093 164.300, 128.897 171.103 C 139.450 181.657, 150.779 186.365, 165.500 186.316 C 189.050 186.237, 207.856 172.600, 215.582 150 C 218.062 142.743, 218.119 126.813, 215.691 119 C 210.728 103.028, 198.036 90.091, 182.097 84.758 C 176.601 82.919, 161.920 81.671, 157 82.625 M 137.250 104.662 C 136.290 105.050, 136 111.986, 136 134.583 L 136 164 165.393 164 C 191.273 164, 194.859 163.811, 195.393 162.418 C 195.727 161.548, 196 148.588, 196 133.618 C 196 113.782, 195.675 106.075, 194.800 105.200 C 193.921 104.321, 186.236 104.021, 166.050 104.079 C 150.898 104.122, 137.938 104.385, 137.250 104.662 M 141 125.195 L 141 141.425 145.784 136.712 C 148.416 134.121, 151.123 132, 151.800 132 C 152.477 132, 155.545 133.670, 158.618 135.710 L 164.206 139.420 171.136 132.210 C 174.948 128.245, 178.465 125, 178.953 125 C 179.440 125, 182.364 127.308, 185.450 130.129 L 191.062 135.257 190.781 122.379 L 190.500 109.500 165.750 109.233 L 141 108.965 141 125.195 M 149 118 C 146.410 120.590, 147.830 124, 151.500 124 C 155.796 124, 156.809 119.039, 152.936 116.966 C 151.471 116.182, 150.586 116.414, 149 118 M 82.458 124.250 C 82.194 124.938, 82.096 146.200, 82.239 171.500 L 82.500 217.500 110 217.767 C 134.966 218.009, 137.615 217.877, 138.750 216.326 C 139.612 215.148, 140 210.189, 140 200.362 L 140 186.107 134.546 182.487 C 121.477 173.812, 111.369 158.252, 109.094 143.308 C 108.493 139.353, 108 135.888, 108 135.608 C 108 135.329, 105.412 134.965, 102.250 134.800 C 97.267 134.540, 96.500 134.233, 96.500 132.500 C 96.500 130.781, 97.270 130.456, 101.978 130.190 C 107.708 129.865, 108.959 128.983, 108.985 125.250 C 109 123.031, 108.821 123, 95.969 123 C 86.466 123, 82.807 123.338, 82.458 124.250 M 173.575 136.633 C 170.678 139.820, 169.031 142.400, 169.575 142.899 C 170.084 143.365, 175 146.733, 180.500 150.383 L 190.500 157.019 190.797 149.836 L 191.095 142.654 185.329 136.827 C 182.157 133.622, 179.324 131.049, 179.031 131.108 C 178.739 131.167, 176.284 133.654, 173.575 136.633 M 146.216 143.281 C 141.269 148.290, 141 148.832, 141 153.781 L 141 159 162.745 159 L 184.490 159 168.759 148.500 C 160.107 142.725, 152.669 138, 152.230 138 C 151.791 138, 149.085 140.377, 146.216 143.281 M 108.046 205.445 C 107.386 206.240, 106.994 207.927, 107.173 209.195 C 107.595 212.168, 111.830 212.954, 113.694 210.404 C 115.373 208.108, 115.338 207.481, 113.429 205.571 C 111.470 203.613, 109.603 203.569, 108.046 205.445" stroke="none" fill="black" fill-rule="evenodd"/>
</svg>